<svg width="1600" height="1000" viewBox="0 0 1600 1000" fill="none" xmlns="http://www.w3.org/2000/svg">
  <defs>
    <linearGradient id="bg3" x1="0" y1="0" x2="1600" y2="1000" gradientUnits="userSpaceOnUse">
      <stop stop-color="#0B1120"/>
      <stop offset="1" stop-color="#111827"/>
    </linearGradient>
    <linearGradient id="accent3" x1="0" y1="0" x2="1" y2="1">
      <stop stop-color="#8B5CF6"/>
      <stop offset="1" stop-color="#22D3EE"/>
    </linearGradient>
  </defs>
  <rect width="1600" height="1000" fill="url(#bg3)"/>
  <rect x="0" y="0" width="220" height="1000" fill="#0F172A" stroke="#334155"/>
  <text x="34" y="90" fill="#F8FAFC" font-size="30" font-weight="700" font-family="Segoe UI, Arial, sans-serif">DesignSpace</text>
  <g>
    <rect x="34" y="130" width="152" height="58" rx="16" fill="#111827" stroke="#334155"/>
    <text x="110" y="168" fill="#E2E8F0" font-size="20" font-family="Segoe UI, Arial, sans-serif" text-anchor="middle">Select</text>
    <rect x="34" y="208" width="152" height="58" rx="16" fill="#111827" stroke="#334155"/>
    <text x="110" y="246" fill="#E2E8F0" font-size="20" font-family="Segoe UI, Arial, sans-serif" text-anchor="middle">Pencil</text>
    <rect x="34" y="286" width="152" height="58" rx="16" fill="#111827" stroke="#334155"/>
    <text x="110" y="324" fill="#E2E8F0" font-size="20" font-family="Segoe UI, Arial, sans-serif" text-anchor="middle">Line</text>
    <rect x="34" y="364" width="152" height="58" rx="16" fill="#111827" stroke="#334155"/>
    <text x="110" y="402" fill="#E2E8F0" font-size="20" font-family="Segoe UI, Arial, sans-serif" text-anchor="middle">Text</text>
  </g>
  <rect x="260" y="44" width="1310" height="906" rx="28" fill="#111827" stroke="#334155"/>
  <rect x="286" y="70" width="1258" height="74" rx="18" fill="#0F172A" stroke="#334155"/>
  <text x="322" y="114" fill="#F8FAFC" font-size="28" font-weight="700" font-family="Segoe UI, Arial, sans-serif">Product Launch • Shared board</text>
  <g>
    <circle cx="1308" cy="106" r="16" fill="#F472B6"/>
    <circle cx="1344" cy="106" r="16" fill="#22D3EE"/>
    <circle cx="1380" cy="106" r="16" fill="#FBBF24"/>
    <text x="1420" y="116" fill="#A5B4FC" font-size="18" font-family="Segoe UI, Arial, sans-serif">3 online</text>
  </g>
  <rect x="286" y="166" width="938" height="708" rx="26" fill="#F8FAFC"/>
  <rect x="1248" y="166" width="298" height="708" rx="26" fill="#0F172A" stroke="#334155"/>
  <g>
    <rect x="1288" y="202" width="220" height="70" rx="16" fill="#111827" stroke="#334155"/>
    <text x="1362" y="245" fill="#E2E8F0" font-size="22" font-weight="700" font-family="Segoe UI, Arial, sans-serif" text-anchor="middle">Comments</text>
    <rect x="1288" y="300" width="220" height="122" rx="18" fill="#111827" stroke="#334155"/>
    <text x="1306" y="350" fill="#CBD5E1" font-size="18" font-family="Segoe UI, Arial, sans-serif">Nina: I like the header layout.</text>
    <text x="1306" y="382" fill="#94A3B8" font-size="16" font-family="Segoe UI, Arial, sans-serif">2 mins ago</text>
    <rect x="1288" y="444" width="220" height="122" rx="18" fill="#111827" stroke="#334155"/>
    <text x="1306" y="492" fill="#CBD5E1" font-size="18" font-family="Segoe UI, Arial, sans-serif">Alex: We can add a CTA block here.</text>
    <text x="1306" y="526" fill="#94A3B8" font-size="16" font-family="Segoe UI, Arial, sans-serif">6 mins ago</text>
  </g>
  <g>
    <path d="M340 740 L610 560 L760 612 L916 470 L1020 528 L1118 418" stroke="#8B5CF6" stroke-width="8" stroke-linecap="round" stroke-linejoin="round" fill="none"/>
    <rect x="498" y="455" width="130" height="90" rx="14" fill="#E0F2FE" stroke="#38BDF8" stroke-width="4"/>
    <circle cx="770" cy="590" r="62" fill="#F5F3FF" stroke="#8B5CF6" stroke-width="4"/>
    <text x="570" y="570" fill="#0F172A" font-size="24" font-family="Segoe UI, Arial, sans-serif" font-weight="700">Launch</text>
    <text x="783" y="603" fill="#0F172A" font-size="20" font-family="Segoe UI, Arial, sans-serif" font-weight="700">Hero</text>
    <rect x="960" y="732" width="180" height="78" rx="14" fill="#DCFCE7" stroke="#4ADE80" stroke-width="4"/>
    <text x="1050" y="778" fill="#14532D" font-size="20" font-family="Segoe UI, Arial, sans-serif" font-weight="700" text-anchor="middle">CTA</text>
  </g>
  <g>
    <rect x="440" y="260" width="210" height="86" rx="18" fill="#F8FAFC" stroke="#CBD5E1"/>
    <text x="470" y="312" fill="#0F172A" font-size="22" font-family="Segoe UI, Arial, sans-serif">Welcome</text>
    <circle cx="620" cy="352" r="14" fill="#8B5CF6"/>
  </g>
</svg>
